<svg aria-hidden="true" style="position: absolute; width: 0; height: 0; overflow: hidden;" version="1.1" xmlns="http://www.w3.org/2000/svg" xmlns:xlink="http://www.w3.org/1999/xlink">
<defs>
<symbol id="icon-logo" viewBox="0 0 106 32">
<path fill="#f1a501" style="fill: var(--color1, #f1a501)" d="M68.571 26.514l8.686 2.743 7.314-7.314 9.143 6.4 9.6-1.829-4.114-13.257-14.629 4.571-8.229-4.571-8.686 1.371 0.914 11.886z"></path>
<path fill="#000" style="fill: var(--color2, #000)" d="M0.841 22.001v-1.977l5.594-1.009v2.734c0.028 1.486 0.407 2.608 1.136 3.365 0.757 0.729 1.752 1.093 2.986 1.093 1.206 0 2.159-0.392 2.86-1.178 0.729-0.785 1.094-1.837 1.094-3.154v-20.608h5.804v20.608c0 2.748-0.911 5.075-2.734 6.982s-4.15 2.86-6.982 2.86c-2.944 0-5.313-0.883-7.108-2.65-1.766-1.794-2.65-4.15-2.65-7.066z"></path>
<path fill="#000" style="fill: var(--color2, #000)" d="M21.647 25.45c0-1.766 0.575-3.182 1.724-4.248s2.636-1.738 4.458-2.019l5.089-0.757c1.037-0.14 1.556-0.631 1.556-1.472 0-0.785-0.308-1.43-0.925-1.935-0.589-0.505-1.444-0.757-2.566-0.757-1.178 0-2.117 0.322-2.818 0.967-0.673 0.645-1.051 1.444-1.136 2.397l-4.963-1.051c0.196-1.794 1.079-3.379 2.65-4.752s3.645-2.061 6.224-2.061c3.084 0 5.355 0.743 6.813 2.229 1.458 1.458 2.187 3.336 2.187 5.636v10.178c0 1.234 0.084 2.327 0.252 3.28h-5.131c-0.14-0.617-0.21-1.444-0.21-2.481-1.318 2.047-3.351 3.070-6.098 3.070-2.131 0-3.855-0.617-5.173-1.851-1.29-1.234-1.935-2.692-1.935-4.374zM29.933 27.511c1.318 0 2.397-0.365 3.238-1.093 0.869-0.757 1.304-1.991 1.304-3.701v-0.925l-4.668 0.715c-1.71 0.252-2.566 1.122-2.566 2.608 0 0.673 0.238 1.248 0.715 1.724 0.477 0.449 1.136 0.673 1.977 0.673z"></path>
<path fill="#000" style="fill: var(--color2, #000)" d="M61.858 0.636v26.706c0 1.374 0.056 2.622 0.168 3.743h-5.341c-0.14-0.701-0.21-1.5-0.21-2.397-0.477 0.869-1.234 1.57-2.271 2.103-1.009 0.533-2.187 0.799-3.533 0.799-2.944 0-5.369-1.023-7.276-3.070-1.879-2.075-2.818-4.682-2.818-7.823 0-3.056 0.925-5.622 2.776-7.696 1.879-2.075 4.262-3.112 7.15-3.112 2.972 0 4.921 0.855 5.846 2.566v-11.818h5.51zM46.213 20.698c0 1.822 0.477 3.266 1.43 4.332 0.953 1.037 2.187 1.556 3.701 1.556 1.486 0 2.706-0.533 3.659-1.598s1.43-2.509 1.43-4.332c0-1.794-0.477-3.196-1.43-4.206-0.953-1.037-2.173-1.556-3.659-1.556s-2.72 0.519-3.701 1.556c-0.953 1.037-1.43 2.453-1.43 4.248z"></path>
<path fill="#000" style="fill: var(--color2, #000)" d="M70.114 25.072c1.037 1.037 2.285 1.556 3.743 1.556s2.692-0.519 3.701-1.556c1.037-1.037 1.556-2.481 1.556-4.332s-0.519-3.294-1.556-4.332c-1.009-1.037-2.243-1.556-3.701-1.556s-2.706 0.519-3.743 1.556c-1.009 1.037-1.514 2.481-1.514 4.332s0.505 3.294 1.514 4.332zM66.076 12.875c2.075-2.075 4.668-3.112 7.781-3.112s5.692 1.037 7.739 3.112c2.075 2.075 3.112 4.696 3.112 7.865s-1.037 5.79-3.112 7.865c-2.047 2.075-4.626 3.112-7.739 3.112s-5.706-1.037-7.781-3.112c-2.047-2.075-3.070-4.696-3.070-7.865s1.023-5.79 3.070-7.865z"></path>
<path fill="#000" style="fill: var(--color2, #000)" d="M91.31 25.072c1.038 1.037 2.285 1.556 3.743 1.556s2.692-0.519 3.701-1.556c1.038-1.037 1.556-2.481 1.556-4.332s-0.518-3.294-1.556-4.332c-1.009-1.037-2.243-1.556-3.701-1.556s-2.705 0.519-3.743 1.556c-1.009 1.037-1.514 2.481-1.514 4.332s0.505 3.294 1.514 4.332zM87.272 12.875c2.075-2.075 4.668-3.112 7.781-3.112s5.691 1.037 7.739 3.112c2.075 2.075 3.112 4.696 3.112 7.865s-1.038 5.79-3.112 7.865c-2.047 2.075-4.626 3.112-7.739 3.112s-5.706-1.037-7.781-3.112c-2.047-2.075-3.070-4.696-3.070-7.865s1.023-5.79 3.070-7.865z"></path>
</symbol>
<symbol id="icon-arrow" viewBox="0 0 53 32">
<path stroke-linejoin="miter" stroke-linecap="butt" stroke-miterlimit="4" stroke-width="5.3333" d="M2.667 2.667l24 24 24-24"></path>
</symbol>
<symbol id="icon-polygon" viewBox="0 0 30 32">
<path fill="#fff" style="fill: var(--color1, #fff)" d="M29.538 16l-27.692 15.988v-31.976l27.692 15.988z"></path>
</symbol>
<symbol id="icon-plane" viewBox="0 0 35 32">
<path fill="#d5d6db" style="fill: var(--color1, #d5d6db)" d="M20.029 18.066c-0.282 0.063-0.557 0.18-0.808 0.344-0.653 0.416-1.032 1.009-0.848 1.326s0.863 0.235 1.515-0.18c0.254-0.158 0.479-0.36 0.663-0.593 0.085-0.113 0.1-0.253 0.039-0.358l-0.239-0.411c-0.061-0.105-0.187-0.155-0.322-0.128z"></path>
<path fill="#d5d6db" style="fill: var(--color1, #d5d6db)" d="M18.39 12.457c-0.205 0.046-0.404 0.131-0.586 0.249-0.473 0.301-0.749 0.732-0.615 0.961s0.626 0.17 1.099-0.131c0.184-0.114 0.348-0.261 0.481-0.43 0.062-0.082 0.073-0.183 0.028-0.259l-0.173-0.298c-0.044-0.076-0.136-0.113-0.233-0.093z"></path>
<path fill="#029bc5" style="fill: var(--color2, #029bc5)" d="M15.727 12.692c-0.046-0.005-0.094 0.007-0.136 0.034l-1.111 0.708c-0.093 0.059-0.13 0.173-0.083 0.254 0.011 0.019 0.026 0.035 0.043 0.047l2.739 1.888 3.706-2.361-5.158-0.569z"></path>
<path fill="#e1e6e9" style="fill: var(--color3, #e1e6e9)" d="M27.442 12.425l-10.085 6.348-5.966 2.374-3.043 0.605-0.335-0.569 16.809-10.379c0.501-0.311 1.059-0.501 1.618-0.553 0.245-0.021 0.486-0.013 0.719 0.024 0.207 0.031 0.402 0.092 0.582 0.179 0.2 0.099 0.582 0.111 0.705 0.309 0-0 0.292 0.909-1.005 1.66v0z"></path>
<path fill="#029bc5" style="fill: var(--color2, #029bc5)" d="M17.491 17.933l-4.363 6.955c-0.055 0.098-0.022 0.207 0.072 0.244 0.058 0.023 0.129 0.014 0.188-0.024l1.11-0.704c0.214-0.136 0.403-0.308 0.556-0.506l8.461-9.947-6.024 3.982z"></path>
<path fill="#029bc5" style="fill: var(--color2, #029bc5)" d="M6.482 17.701c-0.073-0.025-0.159-0.012-0.232 0.035l-0.918 0.585c-0.125 0.080-0.175 0.233-0.111 0.342 0.012 0.021 0.028 0.039 0.047 0.054l2.572 2.060 2.704-1.689-4.061-1.386z"></path>
<path fill="#029bc5" style="fill: var(--color2, #029bc5)" d="M8.701 21.147l-1.384 1.939c-0.020 0.028-0.016 0.063 0.011 0.078 0.019 0.011 0.045 0.009 0.066-0.005l0.858-0.544c0.007-0.004 0.013-0.010 0.018-0.016l2.023-2.459-1.59 1.007z"></path>
<path fill="#029bc5" style="fill: var(--color2, #029bc5)" d="M26.994 10.36c-0.24-0.039-0.489-0.047-0.741-0.025-0.245 0.343-0.402 0.728-0.455 1.118-0.004 0.078 0.059 0.134 0.141 0.126 0.025-0.003 0.051-0.012 0.073-0.026l1.581-1.007c-0.185-0.091-0.387-0.154-0.599-0.186z"></path>
<path fill="#d5d6db" style="fill: var(--color1, #d5d6db)" d="M23.549 12.211l1.032-0.652 0.961 1.635-1.032 0.652-0.961-1.635z"></path>
<path fill="#3a556a" style="fill: var(--color4, #3a556a)" d="M22.9 12.858c-0.124 0.079-0.174 0.23-0.111 0.338l0.102 0.175c0.067 0.105 0.221 0.124 0.343 0.041 0.116-0.079 0.163-0.221 0.107-0.327l-0.102-0.175c-0.063-0.108-0.215-0.132-0.339-0.053v0z"></path>
<path fill="#3a556a" style="fill: var(--color4, #3a556a)" d="M21.972 13.434c-0.124 0.079-0.174 0.23-0.111 0.338l0.102 0.175c0.067 0.105 0.221 0.124 0.343 0.041 0.116-0.079 0.163-0.221 0.107-0.327l-0.102-0.175c-0.063-0.108-0.215-0.132-0.339-0.053v0z"></path>
<path fill="#3a556a" style="fill: var(--color4, #3a556a)" d="M21.044 14.010c-0.124 0.079-0.174 0.23-0.111 0.338l0.102 0.175c0.067 0.105 0.221 0.124 0.343 0.041 0.116-0.079 0.163-0.221 0.107-0.327l-0.102-0.175c-0.063-0.108-0.215-0.132-0.34-0.053v0z"></path>
<path fill="#3a556a" style="fill: var(--color4, #3a556a)" d="M20.117 14.586c-0.124 0.079-0.174 0.23-0.111 0.338l0.102 0.175c0.067 0.105 0.221 0.124 0.343 0.041 0.116-0.079 0.163-0.221 0.107-0.327l-0.102-0.175c-0.063-0.108-0.215-0.132-0.34-0.053v0z"></path>
<path fill="#3a556a" style="fill: var(--color4, #3a556a)" d="M19.189 15.162c-0.124 0.079-0.174 0.23-0.111 0.338l0.102 0.175c0.063 0.108 0.215 0.132 0.339 0.053s0.174-0.23 0.111-0.338l-0.102-0.175c-0.063-0.108-0.215-0.132-0.339-0.053-0 0-0 0-0 0z"></path>
<path fill="#3a556a" style="fill: var(--color4, #3a556a)" d="M18.262 15.738c-0.124 0.079-0.174 0.23-0.111 0.338l0.102 0.175c0.063 0.108 0.215 0.132 0.339 0.053s0.174-0.23 0.111-0.338l-0.102-0.175c-0.063-0.108-0.215-0.132-0.339-0.053-0 0-0 0-0 0z"></path>
<path fill="#3a556a" style="fill: var(--color4, #3a556a)" d="M17.334 16.314c-0.124 0.079-0.174 0.23-0.111 0.338l0.102 0.175c0.063 0.108 0.215 0.131 0.34 0.052s0.174-0.23 0.111-0.337l-0.102-0.175c-0.063-0.108-0.215-0.132-0.339-0.053z"></path>
<path fill="#3a556a" style="fill: var(--color4, #3a556a)" d="M16.406 16.891c-0.124 0.079-0.174 0.23-0.111 0.338l0.102 0.175c0.063 0.108 0.215 0.131 0.34 0.052s0.174-0.23 0.111-0.337l-0.102-0.175c-0.063-0.108-0.215-0.132-0.339-0.053z"></path>
<path fill="#3a556a" style="fill: var(--color4, #3a556a)" d="M15.478 17.467c-0.124 0.079-0.174 0.23-0.111 0.338l0.102 0.175c0.063 0.108 0.215 0.131 0.339 0.052s0.174-0.23 0.111-0.337l-0.102-0.175c-0.063-0.108-0.215-0.132-0.339-0.053z"></path>
<path fill="#3a556a" style="fill: var(--color4, #3a556a)" d="M14.55 18.043c-0.124 0.079-0.174 0.23-0.111 0.338l0 0 0.102 0.175c0.063 0.108 0.215 0.131 0.339 0.052s0.174-0.23 0.111-0.337l-0.102-0.175c-0.063-0.108-0.215-0.132-0.339-0.053z"></path>
<path fill="#3a556a" style="fill: var(--color4, #3a556a)" d="M13.623 18.619c-0.124 0.079-0.174 0.23-0.111 0.338l0 0 0.102 0.175c0.063 0.108 0.215 0.131 0.339 0.052s0.174-0.23 0.111-0.337l-0.102-0.175c-0.063-0.108-0.215-0.132-0.339-0.053z"></path>
</symbol>
<symbol id="icon-power" viewBox="0 0 32 32">
<path fill="#b6c4cf" style="fill: var(--color5, #b6c4cf)" d="M32 17.823v-3.646c0-0.715-0.579-1.294-1.294-1.294h-1.394c-0.558 0-1.052-0.357-1.227-0.886-0.195-0.59-0.432-1.16-0.708-1.708-0.251-0.499-0.155-1.102 0.24-1.497l0.986-0.987c0.505-0.505 0.505-1.325 0-1.83l-2.578-2.578c-0.505-0.505-1.325-0.505-1.83 0l-0.986 0.987c-0.395 0.395-0.998 0.491-1.497 0.24-0.548-0.276-1.118-0.513-1.708-0.708-0.529-0.175-0.886-0.67-0.886-1.227v-1.394c0-0.715-0.579-1.294-1.294-1.294h-3.646c-0.715 0-1.294 0.579-1.294 1.294v1.394c0 0.558-0.357 1.052-0.887 1.227-0.59 0.195-1.16 0.432-1.708 0.708-0.499 0.251-1.102 0.155-1.497-0.24l-0.987-0.987c-0.505-0.505-1.325-0.505-1.83 0l-2.578 2.578c-0.505 0.505-0.505 1.325 0 1.83l0.987 0.986c0.395 0.395 0.491 0.998 0.24 1.497-0.276 0.548-0.513 1.118-0.708 1.708-0.124 0.374-0.407 0.662-0.76 0.799-0.146 0.057-0.24 0.152-0.404 0.152h-1.394c-0.715 0-1.294 0.579-1.294 1.294v3.517c0 0.715 0.579 1.294 1.294 1.294h1.394c0.558 0 1.052 0.422 1.227 0.951 0.195 0.59 0.432 1.16 0.708 1.708 0.251 0.499 0.155 1.102-0.24 1.497l-0.922 0.986c-0.505 0.505-0.505 1.325 0 1.83l2.449 2.449c0.505 0.505 1.325 0.505 1.83 0l0.986-0.986c0.395-0.395 0.998-0.491 1.497-0.24 0.548 0.276 1.247 0.577 1.837 0.772 0.529 0.175 0.886 0.67 0.886 1.227v1.394c0 0.715 0.579 1.294 1.294 1.294h3.453c0.715 0 1.294-0.579 1.294-1.294v-1.394c0-0.164 0.095-0.257 0.152-0.404 0.137-0.352 0.425-0.636 0.799-0.76 0.59-0.195 1.16-0.432 1.708-0.708 0.499-0.251 1.102-0.155 1.497 0.24l0.986 0.986c0.505 0.505 1.325 0.505 1.83 0l2.578-2.578c0.505-0.505 0.505-1.325 0-1.83l-0.986-0.986c-0.395-0.395-0.491-0.998-0.24-1.497 0.276-0.548 0.513-1.118 0.708-1.708 0.175-0.529 0.67-0.886 1.227-0.886h1.394c0.715 0 1.294-0.579 1.294-1.294z"></path>
<path fill="#9facba" style="fill: var(--color6, #9facba)" d="M19.204 28.844c-0.057 0.146-0.088 0.305-0.088 0.468v1.394c0 0.715-0.579 1.294-1.294 1.294h-3.646c-0.715 0-1.294-0.58-1.294-1.294v-1.394c0-0.558-0.357-1.053-0.887-1.228-0.589-0.195-1.16-0.432-1.708-0.708-0.499-0.251-1.102-0.155-1.497 0.24l-0.986 0.986c-0.505 0.505-1.325 0.505-1.83 0l-2.578-2.577c-0.505-0.505-0.505-1.325 0-1.83l0.987-0.986c0.395-0.395 0.491-0.998 0.24-1.497-0.276-0.548-0.513-1.118-0.708-1.708-0.175-0.529-0.67-0.887-1.228-0.887h-1.394c-0.715 0-1.294-0.579-1.294-1.294v-3.646c0-0.715 0.579-1.294 1.294-1.294h1.394c0.164 0 0.322-0.031 0.468-0.088-0.001 0.081-0.002 0.162-0.002 0.243 0 8.73 7.077 15.808 15.807 15.808 0.081 0 0.162-0.001 0.243-0.002z"></path>
<path fill="#9facba" style="fill: var(--color6, #9facba)" d="M16 26.624c5.867 0 10.624-4.756 10.624-10.624s-4.756-10.624-10.624-10.624c-5.867 0-10.624 4.756-10.624 10.624s4.756 10.624 10.624 10.624z"></path>
<path fill="#f8f7f7" style="fill: var(--color7, #f8f7f7)" d="M16 24.37c4.623 0 8.37-3.747 8.37-8.37s-3.747-8.37-8.37-8.37c-4.623 0-8.37 3.747-8.37 8.37s3.747 8.37 8.37 8.37z"></path>
</symbol>
<symbol id="icon-satellite" viewBox="0 0 31 32">
<path fill="#407093" style="fill: var(--color8, #407093)" d="M11.293 20.783l-0.775-0.371-4.602 6.804h5.136l0.495-0.323v-5.878l-0.254-0.233z"></path>
<path fill="#365e7d" style="fill: var(--color9, #365e7d)" d="M10.589 20.445l-1.742-0.834h-0.328l-4.925 7.281 0.293 0.323h2.122l4.579-6.77z"></path>
<path fill="#4a80aa" style="fill: var(--color10, #4a80aa)" d="M12.472 26.893h-6.791c-0.308 0-0.559 0.25-0.559 0.559v0.708c0 0.308 0.25 0.558 0.558 0.559h6.791c0.309 0 0.559-0.25 0.559-0.559v-0.708c0-0.309-0.25-0.559-0.559-0.559z"></path>
<path fill="#407093" style="fill: var(--color8, #407093)" d="M5.238 28.159v-0.708c0-0.308 0.25-0.559 0.559-0.559h-3.597c-0.308 0-0.559 0.25-0.559 0.559v0.708c0 0.308 0.25 0.559 0.559 0.559h3.597c-0.309 0-0.559-0.25-0.559-0.559z"></path>
<path fill="#4a80aa" style="fill: var(--color10, #4a80aa)" d="M10.355 16.403c-0.209 0.431-0.327 0.915-0.327 1.426 0 1.398 0.875 2.59 2.107 3.062 0.529-0.166 0.999-0.465 1.37-0.858v-0.714l-3.15-2.916z"></path>
<path fill="#407093" style="fill: var(--color8, #407093)" d="M10.083 17.841c0-0.5 0.116-0.972 0.32-1.393l-1.007-0.932h-0.409c-0.618 0.583-1.004 1.409-1.004 2.325 0 1.765 1.431 3.196 3.196 3.196 0.368 0 0.72-0.063 1.049-0.177-1.249-0.435-2.146-1.622-2.146-3.019z"></path>
<path fill="#ffd086" style="fill: var(--color11, #ffd086)" d="M28.641 0.379c-0.506-0.506-1.326-0.506-1.832 0l-1.236 1.236v0.157l1.543 1.608 0.289 0.067 1.236-1.236c0.506-0.506 0.506-1.326 0-1.832z"></path>
<path fill="#ffc365" style="fill: var(--color12, #ffc365)" d="M28.983 0.991c-0.054-0.224-0.167-0.437-0.342-0.611-0.506-0.506-1.326-0.506-1.832 0l-1.236 1.236v0.157l0.818 0.853c0.488-0.507 0.972-1.008 1.221-1.257 0.415-0.415 1.021-0.418 1.371-0.377z"></path>
<path fill="#365e7d" style="fill: var(--color9, #365e7d)" d="M24.409 3.672c-0.014 0-0.029-0.001-0.043-0.002l-14.284-1.406c-0.238-0.023-0.412-0.236-0.389-0.474s0.236-0.412 0.474-0.389l14.284 1.406c0.238 0.023 0.412 0.236 0.389 0.474-0.022 0.224-0.211 0.391-0.431 0.391z"></path>
<path fill="#407093" style="fill: var(--color8, #407093)" d="M14.214 6.346c-0.192 0-0.368-0.129-0.419-0.324-0.061-0.232 0.078-0.468 0.309-0.529l10.195-2.674c0.232-0.061 0.468 0.078 0.529 0.309s-0.078 0.468-0.309 0.529l-10.195 2.674c-0.037 0.010-0.074 0.014-0.11 0.014z"></path>
<path fill="#365e7d" style="fill: var(--color9, #365e7d)" d="M27.178 19.338c-0.22 0-0.409-0.167-0.431-0.391l-1.397-14.292c-0.023-0.238 0.151-0.45 0.389-0.474 0.238-0.022 0.45 0.151 0.473 0.389l1.397 14.292c0.023 0.238-0.151 0.45-0.389 0.474-0.014 0.001-0.029 0.002-0.043 0.002z"></path>
<path fill="#407093" style="fill: var(--color8, #407093)" d="M23.067 15.281c-0.037 0-0.074-0.005-0.111-0.015-0.231-0.061-0.369-0.299-0.308-0.53l2.713-10.234c0.061-0.231 0.299-0.369 0.53-0.308s0.369 0.299 0.308 0.53l-2.713 10.234c-0.051 0.194-0.227 0.322-0.419 0.322z"></path>
<path fill="#ffc365" style="fill: var(--color12, #ffc365)" d="M24.331 2.857l1.239-1.239 1.831 1.831-1.239 1.239-1.831-1.831z"></path>
<path fill="#ffa90f" style="fill: var(--color13, #ffa90f)" d="M25.272 3.793c0.298-0.312 0.763-0.798 1.213-1.266l-0.912-0.912-1.239 1.239 0.938 0.938z"></path>
<path fill="#4a80aa" style="fill: var(--color10, #4a80aa)" d="M26.441 5.396c-0.111 0-0.222-0.042-0.306-0.127l-2.383-2.383c-0.169-0.169-0.169-0.444 0-0.613s0.444-0.169 0.613 0l2.383 2.383c0.169 0.169 0.169 0.444 0 0.613-0.085 0.085-0.196 0.127-0.306 0.127z"></path>
<path fill="#b5dcff" style="fill: var(--color14, #b5dcff)" d="M26.721 20.118l-14.511-14.637c-1.924 4.343-2.258 9.006-0.818 13.026 3.978 3.588 9.919 4.139 15.39 1.884l-0.061-0.273z"></path>
<path fill="#8bcaff" style="fill: var(--color15, #8bcaff)" d="M12.287 5.559l-3.325-3.354-0.333 0.033c-2.342 5.681-1.658 11.871 2.311 15.841 0.24 0.24 0.489 0.469 0.745 0.685-1.673-4.016-1.402-8.792 0.601-13.205z"></path>
<path fill="#dbedff" style="fill: var(--color16, #dbedff)" d="M28.047 19.078l-14.717-14.717c-0.145 0.022-0.284 0.088-0.396 0.2l-0.64 0.64c-0.137 0.137-0.206 0.317-0.208 0.497l14.671 14.671c0.218 0.218 0.572 0.218 0.79 0l0.501-0.5c0.218-0.218 0.218-0.572-0-0.79z"></path>
<path fill="#b5dcff" style="fill: var(--color14, #b5dcff)" d="M12.316 5.211l0.627-0.627c0.115-0.115 0.261-0.182 0.412-0.199l-3.412-3.412c-0.218-0.218-0.572-0.218-0.79 0l-0.501 0.501c-0.218 0.218-0.218 0.572 0 0.79l3.46 3.46c-0.005-0.185 0.063-0.371 0.204-0.512z"></path>
</symbol>
<symbol id="icon-navigation" viewBox="0 0 32 32">
<path d="M28.909 4.417l-11 24c-0.092 0.201-0.248 0.366-0.444 0.469s-0.42 0.138-0.638 0.1c-0.218-0.038-0.417-0.147-0.566-0.311s-0.24-0.371-0.258-0.592l-0.93-11.157-11.157-0.93c-0.22-0.018-0.428-0.109-0.592-0.258s-0.272-0.348-0.311-0.566c-0.038-0.218-0.003-0.442 0.1-0.638s0.268-0.352 0.469-0.444l24-11c0.186-0.085 0.393-0.111 0.594-0.075s0.386 0.133 0.53 0.277 0.241 0.329 0.277 0.53c0.036 0.201 0.010 0.408-0.075 0.594l0 0z"></path>
</symbol>
<symbol id="icon-selection" viewBox="0 0 32 32">
<path fill="#fff" style="fill: var(--color1, #fff)" d="M0.792 6.51c-0.431 0-0.784-0.353-0.792-0.784v-4.933c0-0.439 0.353-0.792 0.792-0.792h4.933c0.431 0 0.784 0.353 0.784 0.792v1.718h18.98v-1.718c0-0.431 0.353-0.784 0.784-0.792h4.933c0.431 0 0.784 0.353 0.792 0.792v4.933c0 0.431-0.353 0.784-0.792 0.784h-1.718v18.98h1.718c0.431 0 0.784 0.353 0.792 0.784v4.933c0 0.431-0.353 0.784-0.792 0.792h-4.933c-0.431 0-0.784-0.353-0.784-0.792v-1.718h-18.98v1.718c0 0.431-0.353 0.784-0.784 0.792h-4.933c-0.431 0-0.784-0.353-0.792-0.792v-4.933c0-0.431 0.353-0.784 0.792-0.784h1.718v-18.98h-1.718zM30.431 4.941v-3.373h-3.373v3.373h3.373zM27.059 30.431h3.373v-3.373h-3.373v3.373zM6.51 26.274v1.647h18.98v-1.647c0-0.431 0.353-0.784 0.784-0.784h1.647v-18.98h-1.647c-0.431 0-0.784-0.353-0.784-0.784v-1.647h-18.98v1.647c0 0.431-0.353 0.784-0.784 0.784h-1.647v18.98h1.647c0.431 0 0.784 0.353 0.784 0.784zM1.569 27.059v3.373h3.373v-3.373h-3.373zM4.941 4.941v-3.373h-3.373v3.373h3.373z"></path>
</symbol>
<symbol id="icon-payment" viewBox="0 0 43 32">
<path fill="#fff" style="fill: var(--color1, #fff)" d="M37.011 31.873c-0.8 0.016-1.587-0.213-2.253-0.656-0.496-0.324-1.076-0.497-1.668-0.497s-1.172 0.172-1.668 0.497c-0.673 0.429-1.454 0.656-2.252 0.656s-1.579-0.228-2.252-0.656c-0.496-0.324-1.076-0.497-1.668-0.497s-1.172 0.173-1.668 0.497c-0.673 0.429-1.454 0.656-2.252 0.656s-1.579-0.228-2.252-0.656c-0.495-0.324-1.075-0.497-1.667-0.497s-1.172 0.173-1.667 0.497c-0.61 0.405-1.322 0.631-2.055 0.65l-0.040-1.153c0.541-0.013 1.066-0.184 1.511-0.492 0.673-0.428 1.454-0.656 2.252-0.656s1.579 0.228 2.252 0.656c0.496 0.324 1.076 0.497 1.668 0.497s1.172-0.173 1.668-0.497c0.673-0.429 1.455-0.657 2.253-0.657s1.58 0.228 2.253 0.657c0.496 0.324 1.076 0.497 1.668 0.497s1.172-0.173 1.668-0.497c0.673-0.428 1.455-0.656 2.252-0.656s1.579 0.228 2.252 0.656c0.497 0.325 1.078 0.498 1.672 0.498s1.175-0.173 1.672-0.498c0.666-0.442 1.45-0.671 2.249-0.655v1.153c-0.595-0.016-1.179 0.158-1.669 0.497-0.668 0.444-1.456 0.673-2.258 0.657v0z"></path>
<path fill="#fff" style="fill: var(--color1, #fff)" d="M5.65 31.873c-0.8 0.017-1.586-0.212-2.252-0.656-0.489-0.339-1.074-0.513-1.669-0.497v-1.153c0.8-0.017 1.587 0.212 2.253 0.656 0.489 0.339 1.073 0.513 1.668 0.497 0.595 0.016 1.18-0.158 1.669-0.498 0.665-0.444 1.45-0.672 2.249-0.655 0.78-0.018 1.546 0.201 2.2 0.627l-0.582 0.995c-0.477-0.321-1.043-0.485-1.618-0.469-0.593-0.016-1.175 0.158-1.662 0.496-0.667 0.445-1.454 0.674-2.256 0.657v0z"></path>
<path fill="#fff" style="fill: var(--color1, #fff)" d="M37.012 27.836c-0.801 0.016-1.587-0.213-2.254-0.656-0.496-0.324-1.076-0.497-1.669-0.497s-1.173 0.173-1.669 0.497c-0.673 0.428-1.454 0.656-2.252 0.656s-1.579-0.228-2.252-0.656c-0.496-0.324-1.075-0.497-1.667-0.497s-1.172 0.173-1.667 0.497c-0.673 0.429-1.454 0.656-2.252 0.656s-1.579-0.228-2.252-0.656c-0.496-0.324-1.075-0.497-1.667-0.497s-1.172 0.173-1.667 0.497c-0.666 0.444-1.452 0.673-2.252 0.656-0.8 0.017-1.586-0.212-2.252-0.656-0.489-0.339-1.073-0.513-1.667-0.497-0.594-0.016-1.178 0.158-1.667 0.497-0.665 0.443-1.45 0.672-2.249 0.656-0.8 0.017-1.587-0.212-2.253-0.656-0.49-0.34-1.075-0.514-1.671-0.497v-1.153c0.8-0.017 1.586 0.212 2.252 0.656 0.489 0.339 1.074 0.513 1.669 0.497 0.594 0.016 1.178-0.158 1.667-0.497 0.665-0.443 1.45-0.672 2.249-0.656 0.801-0.017 1.587 0.212 2.254 0.656 0.489 0.339 1.073 0.513 1.668 0.497 0.595 0.016 1.179-0.158 1.668-0.497 0.673-0.429 1.454-0.656 2.252-0.656s1.579 0.228 2.252 0.656c0.496 0.324 1.075 0.497 1.668 0.497s1.172-0.173 1.668-0.497c0.673-0.429 1.454-0.656 2.252-0.656s1.579 0.228 2.252 0.656c0.496 0.324 1.075 0.497 1.668 0.497s1.172-0.173 1.668-0.497c0.674-0.428 1.455-0.656 2.254-0.656s1.58 0.228 2.254 0.656c0.497 0.324 1.077 0.497 1.67 0.497s1.173-0.173 1.67-0.497c0.667-0.443 1.453-0.672 2.254-0.656v1.153c-0.596-0.017-1.182 0.157-1.672 0.497-0.666 0.443-1.452 0.672-2.253 0.656v0z"></path>
<path fill="#fff" style="fill: var(--color1, #fff)" d="M37.011 23.801c-0.8 0.016-1.587-0.213-2.253-0.656-0.489-0.339-1.074-0.513-1.669-0.497-0.437-0.015-0.87 0.078-1.262 0.271l-0.509-1.038c0.551-0.27 1.158-0.403 1.771-0.388 0.801-0.016 1.588 0.213 2.255 0.658 0.497 0.325 1.078 0.498 1.672 0.498s1.175-0.173 1.672-0.498c0.665-0.442 1.45-0.671 2.249-0.656v1.153c-0.595-0.016-1.179 0.157-1.669 0.496-0.668 0.444-1.456 0.673-2.258 0.657z"></path>
<path fill="#fff" style="fill: var(--color1, #fff)" d="M29.163 23.801c-0.799 0.017-1.584-0.212-2.249-0.656-0.496-0.324-1.076-0.497-1.668-0.497s-1.172 0.173-1.668 0.497c-0.673 0.429-1.455 0.656-2.252 0.656s-1.579-0.228-2.252-0.656c-0.496-0.324-1.076-0.497-1.668-0.497s-1.172 0.173-1.668 0.497c-0.666 0.443-1.451 0.672-2.251 0.656-0.8 0.017-1.586-0.212-2.252-0.656-0.489-0.339-1.074-0.513-1.669-0.497-0.593-0.016-1.175 0.158-1.662 0.496-0.666 0.445-1.453 0.674-2.253 0.657-0.8 0.017-1.586-0.212-2.252-0.656-0.489-0.339-1.074-0.513-1.669-0.497v-1.153c0.8-0.017 1.587 0.212 2.253 0.656 0.489 0.339 1.073 0.513 1.668 0.497 0.595 0.016 1.18-0.158 1.669-0.498 0.665-0.444 1.45-0.672 2.249-0.655 0.8-0.017 1.586 0.212 2.252 0.656 0.489 0.339 1.073 0.513 1.668 0.497 0.595 0.016 1.179-0.158 1.669-0.497 0.673-0.429 1.454-0.656 2.252-0.656s1.579 0.228 2.252 0.656c0.496 0.324 1.076 0.497 1.668 0.497s1.172-0.173 1.668-0.497c0.673-0.429 1.455-0.657 2.253-0.657s1.58 0.228 2.253 0.657c0.508 0.341 1.11 0.515 1.722 0.496 0.045 0.001 0.089-0.002 0.133-0.007l0.153 1.143c-0.116 0.014-0.232 0.020-0.349 0.018v0z"></path>
<path fill="#fff" style="fill: var(--color1, #fff)" d="M37.012 19.764c-0.801 0.016-1.587-0.213-2.254-0.656-0.496-0.324-1.076-0.497-1.669-0.497s-1.173 0.173-1.669 0.497c-0.673 0.428-1.454 0.656-2.252 0.656s-1.579-0.228-2.252-0.656c-0.496-0.324-1.075-0.497-1.667-0.497s-1.172 0.173-1.667 0.497c-0.673 0.428-1.454 0.656-2.252 0.656s-1.579-0.228-2.252-0.656c-0.496-0.324-1.075-0.497-1.667-0.497s-1.172 0.173-1.667 0.497c-0.666 0.444-1.452 0.673-2.252 0.656-0.8 0.017-1.586-0.212-2.252-0.656-0.489-0.339-1.073-0.513-1.667-0.497-0.594-0.016-1.178 0.158-1.667 0.497-0.665 0.443-1.45 0.672-2.249 0.656-0.8 0.017-1.587-0.212-2.253-0.656-0.49-0.34-1.075-0.514-1.671-0.497v-1.153c0.8-0.017 1.586 0.212 2.252 0.656 0.489 0.339 1.074 0.513 1.669 0.497 0.594 0.016 1.178-0.158 1.667-0.497 0.665-0.443 1.45-0.672 2.249-0.656 0.801-0.017 1.587 0.212 2.254 0.656 0.489 0.339 1.073 0.513 1.668 0.497 0.595 0.016 1.179-0.158 1.668-0.497 0.673-0.429 1.454-0.656 2.252-0.656s1.579 0.228 2.252 0.656c0.496 0.324 1.075 0.497 1.668 0.497s1.172-0.173 1.668-0.497c0.673-0.429 1.454-0.656 2.252-0.656s1.579 0.228 2.252 0.656c0.496 0.324 1.075 0.497 1.668 0.497s1.172-0.173 1.668-0.497c0.674-0.428 1.455-0.656 2.254-0.656s1.58 0.228 2.254 0.656c0.497 0.324 1.077 0.497 1.67 0.497s1.173-0.173 1.67-0.497c0.667-0.444 1.453-0.672 2.254-0.656v1.153c-0.596-0.017-1.182 0.157-1.672 0.497-0.666 0.443-1.452 0.672-2.253 0.656v0z"></path>
<path fill="#fff" style="fill: var(--color1, #fff)" d="M28.796 19.275l-1.088-0.382c0.28-0.805 0.395-1.658 0.337-2.509s-0.288-1.68-0.675-2.44l-3.961-7.756c-0.039-0.077-0.061-0.161-0.063-0.247s0.015-0.171 0.050-0.25c0.035-0.079 0.087-0.148 0.153-0.204s0.142-0.096 0.226-0.118l7.893-2.104c0.257-0.067 0.478-0.233 0.613-0.462s0.175-0.502 0.11-0.76-0.229-0.48-0.457-0.617c-0.228-0.137-0.5-0.179-0.759-0.117l-9.553 2.283c-0.204 0.048-0.395 0.143-0.556 0.277s-0.291 0.303-0.377 0.494c-0.086 0.191-0.127 0.4-0.119 0.61s0.064 0.415 0.163 0.599l2.837 5.27c0.072 0.134 0.088 0.291 0.045 0.437s-0.142 0.269-0.276 0.342l-3.661 2.018-0.556-1.010 3.161-1.742-2.563-4.767c-0.183-0.34-0.286-0.718-0.3-1.105s0.061-0.771 0.219-1.123 0.396-0.664 0.694-0.911c0.298-0.246 0.649-0.421 1.025-0.51l9.548-2.283c0.556-0.14 1.145-0.054 1.637 0.239s0.848 0.771 0.988 1.327 0.054 1.145-0.239 1.637c-0.294 0.492-0.771 0.848-1.327 0.988l-7.204 1.92 3.637 7.12c0.458 0.899 0.729 1.881 0.798 2.887s-0.067 2.016-0.399 2.969v0z"></path>
<path fill="#fff" style="fill: var(--color1, #fff)" d="M17.106 13.749l-7.007 3.861 0.556 1.009 7.007-3.861-0.556-1.009z"></path>
<path fill="#fff" style="fill: var(--color1, #fff)" d="M34.018 15.44c-0.855 0-1.691-0.254-2.402-0.729s-1.265-1.151-1.593-1.941-0.413-1.66-0.246-2.498c0.167-0.839 0.579-1.609 1.183-2.214s1.375-1.017 2.214-1.183c0.839-0.167 1.708-0.081 2.498 0.246s1.465 0.882 1.941 1.593 0.729 1.547 0.729 2.402c-0.001 1.146-0.457 2.246-1.268 3.056s-1.91 1.267-3.057 1.268v0zM34.018 7.944c-0.627 0-1.24 0.186-1.762 0.534s-0.928 0.844-1.168 1.423-0.303 1.217-0.18 1.832c0.122 0.615 0.424 1.18 0.868 1.624s1.009 0.746 1.624 0.868c0.615 0.122 1.253 0.060 1.832-0.18s1.075-0.646 1.423-1.168 0.534-1.135 0.534-1.762c-0.001-0.841-0.335-1.647-0.93-2.241s-1.401-0.929-2.241-0.93v0z"></path>
</symbol>
<symbol id="icon-taxi" viewBox="0 0 38 32">
<path fill="#fff" style="fill: var(--color1, #fff)" d="M7.2 17.8c-0.475 0-0.939 0.141-1.333 0.404s-0.702 0.639-0.884 1.077c-0.182 0.439-0.229 0.921-0.137 1.387s0.321 0.893 0.657 1.229c0.336 0.336 0.763 0.564 1.229 0.657s0.948 0.045 1.387-0.137c0.439-0.182 0.813-0.489 1.077-0.884s0.404-0.859 0.404-1.333c0-0.636-0.253-1.247-0.703-1.697s-1.061-0.703-1.697-0.703zM7.2 21.4c-0.237 0-0.469-0.070-0.667-0.202s-0.351-0.319-0.442-0.539c-0.091-0.219-0.115-0.46-0.068-0.693s0.161-0.447 0.328-0.614c0.168-0.168 0.382-0.282 0.614-0.328s0.474-0.023 0.693 0.068 0.407 0.245 0.539 0.442c0.132 0.197 0.202 0.429 0.202 0.667 0 0.318-0.126 0.624-0.351 0.848s-0.53 0.352-0.849 0.352z"></path>
<path fill="#fff" style="fill: var(--color1, #fff)" d="M31.2 17.8c-0.475 0-0.939 0.141-1.333 0.404s-0.702 0.639-0.884 1.077c-0.182 0.439-0.229 0.921-0.137 1.387s0.321 0.893 0.657 1.229c0.336 0.336 0.763 0.564 1.229 0.657s0.948 0.045 1.387-0.137c0.439-0.182 0.813-0.489 1.077-0.884s0.404-0.859 0.404-1.333c0-0.636-0.253-1.247-0.703-1.697s-1.061-0.703-1.697-0.703zM31.2 21.4c-0.237 0-0.469-0.070-0.667-0.202s-0.351-0.319-0.442-0.539c-0.091-0.219-0.115-0.46-0.068-0.693s0.161-0.447 0.328-0.614c0.168-0.168 0.382-0.282 0.614-0.328s0.474-0.023 0.693 0.068c0.219 0.091 0.407 0.245 0.539 0.442s0.202 0.429 0.202 0.667c0 0.318-0.126 0.624-0.352 0.848s-0.53 0.352-0.848 0.352z"></path>
<path fill="#fff" style="fill: var(--color1, #fff)" d="M13.8 20.8h10.8v1.2h-10.8v-1.2z"></path>
<path fill="#fff" style="fill: var(--color1, #fff)" d="M13.8 18.4h10.8v1.2h-10.8v-1.2z"></path>
<path fill="#fff" style="fill: var(--color1, #fff)" d="M17.4 9.4h3.6v1.2h-3.6v-1.2z"></path>
<path fill="#fff" style="fill: var(--color1, #fff)" d="M37.2 14.8v-1.2c-0.001-0.477-0.192-0.934-0.529-1.271s-0.794-0.527-1.271-0.529h-2.376l-1.242-4.356-0.372-1.482c-0.098-0.389-0.322-0.734-0.639-0.981s-0.706-0.381-1.107-0.381h-5.064v-2.4c-0.001-0.318-0.128-0.623-0.352-0.847s-0.53-0.352-0.848-0.353h-8.4c-0.318 0.001-0.623 0.128-0.847 0.353s-0.352 0.53-0.353 0.847v2.4h-5.064c-0.401-0-0.791 0.134-1.107 0.381s-0.541 0.592-0.639 0.981l-0.366 1.476-1.248 4.362h-2.376c-0.477 0.001-0.934 0.192-1.271 0.529s-0.527 0.794-0.529 1.271v1.2c0.001 0.304 0.079 0.603 0.227 0.868s0.361 0.489 0.619 0.65c-0.542 0.557-0.846 1.304-0.846 2.082v7.2c0.001 0.252 0.055 0.5 0.158 0.73s0.254 0.435 0.442 0.602v2.268c0.001 0.477 0.192 0.934 0.529 1.271s0.794 0.527 1.271 0.529h4.8c0.477-0.001 0.934-0.192 1.271-0.529s0.527-0.794 0.529-1.271v-1.8h18v1.8c0.001 0.477 0.192 0.934 0.529 1.271s0.794 0.527 1.271 0.529h4.8c0.477-0.001 0.934-0.192 1.271-0.529s0.527-0.794 0.529-1.271v-2.268c0.188-0.167 0.339-0.373 0.442-0.602s0.157-0.478 0.158-0.73v-7.2c0-0.778-0.304-1.525-0.846-2.082 0.258-0.161 0.471-0.384 0.619-0.65s0.226-0.564 0.227-0.868zM15 2.2h8.4v2.4h-8.4v-2.4zM8.154 6.256c0.032-0.13 0.107-0.246 0.212-0.328s0.236-0.128 0.37-0.128h20.928c0.134 0 0.264 0.045 0.37 0.128s0.18 0.198 0.212 0.328l0.186 0.744h-22.464l0.186-0.744zM7.65 8.2h23.1l2.052 7.2h-17.256c-0.141-0.838-0.575-1.6-1.224-2.149s-1.472-0.85-2.322-0.85c-0.85 0-1.673 0.301-2.322 0.85s-1.083 1.31-1.224 2.149h-2.856l2.052-7.2zM14.316 15.4h-4.632c0.131-0.515 0.43-0.971 0.849-1.297s0.936-0.503 1.467-0.503c0.531 0 1.047 0.177 1.467 0.503s0.718 0.783 0.849 1.297zM2.4 13.6c0-0.159 0.063-0.312 0.176-0.424s0.265-0.176 0.424-0.176h2.034l-0.684 2.4h-1.35c-0.159 0-0.312-0.063-0.424-0.176s-0.176-0.265-0.176-0.424v-1.2zM9 29.2c0 0.159-0.063 0.312-0.176 0.424s-0.265 0.176-0.424 0.176h-4.8c-0.159 0-0.312-0.063-0.424-0.176s-0.176-0.265-0.176-0.424v-1.8h6v1.8zM35.4 29.2c0 0.159-0.063 0.312-0.176 0.424s-0.265 0.176-0.424 0.176h-4.8c-0.159 0-0.312-0.063-0.424-0.176s-0.176-0.265-0.176-0.424v-1.8h6v1.8zM36 25.6c0 0.159-0.063 0.312-0.176 0.424s-0.265 0.176-0.424 0.176h-32.4c-0.159 0-0.312-0.063-0.424-0.176s-0.176-0.265-0.176-0.424v-0.6h33.6v0.6zM36 23.8h-33.6v-5.4c0.001-0.477 0.192-0.934 0.529-1.271s0.794-0.527 1.271-0.529h30c0.477 0.001 0.934 0.192 1.271 0.529s0.527 0.794 0.529 1.271v5.4zM36 14.8c0 0.159-0.063 0.312-0.176 0.424s-0.265 0.176-0.424 0.176h-1.35l-0.684-2.4h2.034c0.159 0 0.312 0.063 0.424 0.176s0.176 0.265 0.176 0.424v1.2z"></path>
</symbol>
<symbol id="icon-leaf" viewBox="0 0 32 32">
<path fill="#84829a" style="fill: var(--color1, #84829a)" d="M31.21 0.345c-0.843-0.247-21.467-2.3-28.71 7.485-3.208 4.335-3.256 10.278-0.161 17.661-0.785 1.63-1.473 3.346-2.033 5.158-0.17 0.55 0.138 1.134 0.688 1.304 0.102 0.032 0.206 0.047 0.309 0.047 0.445 0 0.857-0.287 0.995-0.734 5.521-17.848 23.461-26.482 28.962-28.664 0.535-0.212 1.251-1.876-0.050-2.257z"></path>
<path fill="#84829a" style="fill: var(--color1, #84829a)" d="M5.65 27.725c2.986 1.253 5.972 1.895 8.748 1.895 2.496 0 4.823-0.513 6.828-1.554 4.036-2.094 6.503-6.099 7.132-11.583 0.642-5.59 1.44-9.091 2.107-11.232-5.932 2.736-18.652 9.829-24.816 22.475z"></path>
</symbol>
<symbol id="icon-map" viewBox="0 0 32 32">
<path fill="#84829a" style="fill: var(--color1, #84829a)" d="M30.859 0c-0.178-0-0.353 0.041-0.512 0.121l-8.66 4.331-9.793-4.353c-0.016-0.007-0.034-0.008-0.051-0.015-0.044-0.016-0.089-0.030-0.135-0.041-0.045-0.012-0.092-0.022-0.138-0.029-0.093-0.008-0.186-0.008-0.279 0-0.047 0.007-0.093 0.016-0.138 0.029-0.046 0.011-0.091 0.025-0.135 0.041-0.017 0.007-0.035 0.008-0.051 0.015l-10.286 4.571c-0.413 0.183-0.679 0.593-0.679 1.045v25.142c0 0.387 0.196 0.747 0.52 0.958s0.733 0.244 1.087 0.087l9.822-4.366 9.822 4.366c0.017 0.007 0.035 0 0.053 0.010 0.277 0.124 0.594 0.117 0.865-0.019 0.018-0.008 0.039 0 0.057-0.013l9.143-4.571c0.387-0.194 0.632-0.59 0.632-1.023v-25.142c0-0.631-0.511-1.143-1.142-1.143zM10.288 25.543l-8 3.555v-22.641l8-3.555v22.641zM20.573 29.098l-8-3.555v-22.641l8 3.555v22.641zM29.716 25.58l-6.857 3.428v-22.587l6.857-3.429v22.587z"></path>
</symbol>
<symbol id="icon-send" viewBox="0 0 32 32">
<path fill="#84829a" style="fill: var(--color1, #84829a)" d="M28.213 2.84l-14.44 14.493c-0.166-0.096-0.34-0.176-0.52-0.24l-9.533-3.227c-0.288-0.072-0.544-0.239-0.727-0.473s-0.282-0.523-0.282-0.82c0-0.297 0.099-0.586 0.282-0.82s0.439-0.401 0.727-0.473l23.653-8.413c0.154-0.053 0.317-0.080 0.48-0.080 0.122-0.002 0.244 0.016 0.36 0.053z"></path>
<path fill="#84829a" style="fill: var(--color1, #84829a)" d="M29.134 4.627l-8.413 23.68c-0.093 0.276-0.273 0.514-0.514 0.678s-0.529 0.244-0.819 0.229c-0.294 0.014-0.584-0.071-0.826-0.24s-0.42-0.413-0.508-0.694l-3.173-9.533c-0.064-0.18-0.144-0.354-0.24-0.52l14.52-14.44c0.082 0.276 0.073 0.57-0.026 0.84z"></path>
</symbol>
<symbol id="icon-purple-send" viewBox="0 0 32 33">
<path fill="#fff" style="fill: var(--color1, #fff)" d="M27.353 9.448c0.503 0.871 0.435 1.908-0.177 2.706l-13.435 17.532c-0.554 0.723-1.466 1.092-2.399 0.913-0.914-0.176-1.638-0.842-1.889-1.737l-2.195-7.811-5.667-5.807c-0.65-0.666-0.865-1.626-0.56-2.505 0.301-0.869 1.058-1.499 1.99-1.622l21.901-2.869c0.997-0.131 1.929 0.329 2.432 1.2z"></path>
<path fill="#fff" style="fill: var(--color1, #fff)" d="M7.464 21.786l1.988 7.075c0.251 0.896 0.976 1.562 1.889 1.737 0.933 0.179 1.845-0.189 2.399-0.913l13.435-17.532c0.612-0.798 0.679-1.835 0.177-2.706l-20.096 11.602 0.207 0.736z"></path>
<path fill="#000" style="fill: var(--color2, #000)" d="M15.435 16.328c0.204 0.354 0.083 0.807-0.271 1.012l-7.699 4.445-0.207-0.736-0.534-0.547 7.699-4.445c0.355-0.205 0.808-0.083 1.012 0.271z"></path>
<path fill="#000" style="fill: var(--color2, #000)" d="M7.464 21.786l7.699-4.445c0.355-0.205 0.476-0.658 0.271-1.012l-8.178 4.721 0.207 0.736z"></path>
</symbol>
<symbol id="icon-building" viewBox="0 0 32 32">
<path fill="#84829a" style="fill: var(--color1, #84829a)" d="M0.533 30.933h3.2v-17.6c0-0.295 0.239-0.533 0.533-0.533h7.467v-12.267c0-0.295 0.239-0.533 0.533-0.533h13.867c0.294 0 0.533 0.239 0.533 0.533v30.4h4.8c0.295 0 0.533 0.239 0.533 0.533s-0.239 0.533-0.533 0.533h-30.933c-0.295 0-0.533-0.239-0.533-0.533s0.239-0.533 0.533-0.533zM20.8 30.933h2.133v-4.8c0-0.295-0.239-0.533-0.533-0.533h-1.067c-0.295 0-0.533 0.239-0.533 0.533v4.8zM18.667 13.333v17.6h1.067v-4.8c0-0.884 0.716-1.6 1.6-1.6h1.067c0.884 0 1.6 0.716 1.6 1.6v4.8h1.6v-29.867h-12.8v11.733h5.333c0.295 0 0.533 0.239 0.533 0.533zM4.8 30.933h12.8v-17.067h-12.8v17.067z"></path>
<path fill="#84829a" style="fill: var(--color1, #84829a)" d="M14.933 7.467h3.2c0.295 0 0.533 0.239 0.533 0.533v3.2c0 0.295-0.239 0.533-0.533 0.533h-3.2c-0.295 0-0.533-0.239-0.533-0.533v-3.2c0-0.295 0.239-0.533 0.533-0.533zM15.467 10.667h2.133v-2.133h-2.133v2.133z"></path>
<path fill="#84829a" style="fill: var(--color1, #84829a)" d="M14.933 2.133h3.2c0.295 0 0.533 0.239 0.533 0.533v3.2c0 0.295-0.239 0.533-0.533 0.533h-3.2c-0.295 0-0.533-0.239-0.533-0.533v-3.2c0-0.295 0.239-0.533 0.533-0.533zM15.467 5.333h2.133v-2.133h-2.133v2.133z"></path>
<path fill="#84829a" style="fill: var(--color1, #84829a)" d="M20.267 7.467h3.2c0.295 0 0.533 0.239 0.533 0.533v3.2c0 0.295-0.239 0.533-0.533 0.533h-3.2c-0.294 0-0.533-0.239-0.533-0.533v-3.2c0-0.295 0.239-0.533 0.533-0.533zM20.8 10.667h2.133v-2.133h-2.133v2.133z"></path>
<path fill="#84829a" style="fill: var(--color1, #84829a)" d="M20.267 2.133h3.2c0.295 0 0.533 0.239 0.533 0.533v3.2c0 0.295-0.239 0.533-0.533 0.533h-3.2c-0.294 0-0.533-0.239-0.533-0.533v-3.2c0-0.295 0.239-0.533 0.533-0.533zM20.8 5.333h2.133v-2.133h-2.133v2.133z"></path>
<path fill="#84829a" style="fill: var(--color1, #84829a)" d="M20.267 12.8h3.2c0.295 0 0.533 0.239 0.533 0.533v3.2c0 0.295-0.239 0.533-0.533 0.533h-3.2c-0.294 0-0.533-0.239-0.533-0.533v-3.2c0-0.295 0.239-0.533 0.533-0.533zM20.8 16h2.133v-2.133h-2.133v2.133z"></path>
<path fill="#84829a" style="fill: var(--color1, #84829a)" d="M20.267 18.133h3.2c0.295 0 0.533 0.239 0.533 0.533v3.2c0 0.295-0.239 0.533-0.533 0.533h-3.2c-0.294 0-0.533-0.239-0.533-0.533v-3.2c0-0.295 0.239-0.533 0.533-0.533zM20.8 21.333h2.133v-2.133h-2.133v2.133z"></path>
<path fill="#84829a" style="fill: var(--color1, #84829a)" d="M10.133 24.533h-3.2c-0.295 0-0.533-0.239-0.533-0.533v-3.2c0-0.295 0.239-0.533 0.533-0.533h3.2c0.295 0 0.533 0.239 0.533 0.533v3.2c0 0.294-0.239 0.533-0.533 0.533zM9.6 21.333h-2.133v2.133h2.133v-2.133z"></path>
<path fill="#84829a" style="fill: var(--color1, #84829a)" d="M10.133 19.2h-3.2c-0.295 0-0.533-0.239-0.533-0.533v-3.2c0-0.295 0.239-0.533 0.533-0.533h3.2c0.295 0 0.533 0.239 0.533 0.533v3.2c0 0.295-0.239 0.533-0.533 0.533zM9.6 16h-2.133v2.133h2.133v-2.133z"></path>
<path fill="#84829a" style="fill: var(--color1, #84829a)" d="M10.133 29.867h-3.2c-0.295 0-0.533-0.239-0.533-0.533v-3.2c0-0.295 0.239-0.533 0.533-0.533h3.2c0.295 0 0.533 0.239 0.533 0.533v3.2c0 0.295-0.239 0.533-0.533 0.533zM9.6 26.667h-2.133v2.133h2.133v-2.133z"></path>
<path fill="#84829a" style="fill: var(--color1, #84829a)" d="M15.467 24.533h-3.2c-0.295 0-0.533-0.239-0.533-0.533v-3.2c0-0.295 0.239-0.533 0.533-0.533h3.2c0.295 0 0.533 0.239 0.533 0.533v3.2c0 0.294-0.239 0.533-0.533 0.533zM14.933 21.333h-2.133v2.133h2.133v-2.133z"></path>
<path fill="#84829a" style="fill: var(--color1, #84829a)" d="M15.467 19.2h-3.2c-0.295 0-0.533-0.239-0.533-0.533v-3.2c0-0.295 0.239-0.533 0.533-0.533h3.2c0.295 0 0.533 0.239 0.533 0.533v3.2c0 0.295-0.239 0.533-0.533 0.533zM14.933 16h-2.133v2.133h2.133v-2.133z"></path>
<path fill="#84829a" style="fill: var(--color1, #84829a)" d="M15.467 29.867h-3.2c-0.295 0-0.533-0.239-0.533-0.533v-3.2c0-0.295 0.239-0.533 0.533-0.533h3.2c0.295 0 0.533 0.239 0.533 0.533v3.2c0 0.295-0.239 0.533-0.533 0.533zM14.933 26.667h-2.133v2.133h2.133v-2.133z"></path>
</symbol>
<symbol id="icon-heart" viewBox="0 0 32 32">
<path fill="#4152ca" style="fill: var(--color2, #4152ca)" d="M29.383 3.927c-1.655-1.779-3.974-2.791-6.404-2.795-2.432 0.003-4.754 1.015-6.411 2.794l-0.565 0.597-0.565-0.597c-3.289-3.54-8.826-3.744-12.366-0.454-0.157 0.146-0.308 0.297-0.454 0.454-3.489 3.764-3.489 9.58 0 13.344l12.555 13.24c0.434 0.459 1.158 0.478 1.617 0.044 0.015-0.014 0.030-0.029 0.044-0.044l12.551-13.24c3.489-3.763 3.489-9.58-0-13.343zM27.728 15.695h-0.001l-11.725 12.366-11.726-12.366c-2.666-2.876-2.666-7.32 0-10.196 2.421-2.624 6.51-2.788 9.134-0.367 0.127 0.118 0.25 0.24 0.367 0.367l1.394 1.471c0.459 0.456 1.201 0.456 1.661 0l1.394-1.47c2.421-2.624 6.51-2.788 9.134-0.367 0.127 0.118 0.25 0.24 0.368 0.367 2.689 2.88 2.708 7.332 0 10.194z"></path>
</symbol>
<symbol id="icon-facebook" viewBox="0 0 33 32">
<path fill="#335bf5" style="fill: var(--color1, #335bf5)" d="M31.387 0h-29.44c-0.708 0-1.28 0.572-1.28 1.28v29.44c0 0.708 0.572 1.28 1.28 1.28h29.44c0.708 0 1.28-0.572 1.28-1.28v-29.44c0-0.708-0.572-1.28-1.28-1.28zM27.691 9.34h-2.556c-2.004 0-2.392 0.952-2.392 2.352v3.084h4.784l-0.624 4.828h-4.16v12.396h-4.988v-12.392h-4.172v-4.832h4.172v-3.56c0-4.132 2.524-6.384 6.212-6.384 1.768 0 3.284 0.132 3.728 0.192v4.316h-0.004z"></path>
</symbol>
<symbol id="icon-instagram" viewBox="0 0 33 32">
<path fill="#e61f5a" style="fill: var(--color1, #e61f5a)" d="M16.669 7.796c-4.54 0-8.204 3.664-8.204 8.204s3.664 8.204 8.204 8.204c4.54 0 8.204-3.664 8.204-8.204s-3.664-8.204-8.204-8.204zM16.669 21.332c-2.936 0-5.332-2.396-5.332-5.332s2.396-5.332 5.332-5.332c2.936 0 5.332 2.396 5.332 5.332s-2.396 5.332-5.332 5.332zM25.209 5.548c-1.060 0-1.916 0.856-1.916 1.916s0.856 1.916 1.916 1.916c1.060 0 1.916-0.852 1.916-1.916 0-0.252-0.049-0.501-0.145-0.734s-0.237-0.444-0.415-0.622-0.389-0.319-0.622-0.415c-0.233-0.096-0.482-0.146-0.734-0.145zM32.661 16c0-2.208 0.020-4.396-0.104-6.6-0.124-2.56-0.708-4.832-2.58-6.704-1.876-1.876-4.144-2.456-6.704-2.58-2.208-0.124-4.396-0.104-6.6-0.104-2.208 0-4.396-0.020-6.6 0.104-2.56 0.124-4.832 0.708-6.704 2.58-1.876 1.876-2.456 4.144-2.58 6.704-0.124 2.208-0.104 4.396-0.104 6.6s-0.020 4.396 0.104 6.6c0.124 2.56 0.708 4.832 2.58 6.704 1.876 1.876 4.144 2.456 6.704 2.58 2.208 0.124 4.396 0.104 6.6 0.104 2.208 0 4.396 0.020 6.6-0.104 2.56-0.124 4.832-0.708 6.704-2.58 1.876-1.876 2.456-4.144 2.58-6.704 0.128-2.204 0.104-4.392 0.104-6.6zM29.141 25.432c-0.292 0.728-0.644 1.272-1.208 1.832-0.564 0.564-1.104 0.916-1.832 1.208-2.104 0.836-7.1 0.648-9.432 0.648s-7.332 0.188-9.436-0.644c-0.728-0.292-1.272-0.644-1.832-1.208-0.564-0.564-0.916-1.104-1.208-1.832-0.832-2.108-0.644-7.104-0.644-9.436s-0.188-7.332 0.644-9.436c0.292-0.728 0.644-1.272 1.208-1.832s1.104-0.916 1.832-1.208c2.104-0.832 7.104-0.644 9.436-0.644s7.332-0.188 9.436 0.644c0.728 0.292 1.272 0.644 1.832 1.208 0.564 0.564 0.916 1.104 1.208 1.832 0.832 2.104 0.644 7.104 0.644 9.436s0.188 7.328-0.648 9.432z"></path>
</symbol>
<symbol id="icon-twitter" viewBox="0 0 40 32">
<path fill="#21a6df" style="fill: var(--color2, #21a6df)" d="M39.201 3.945c-1.411 0.617-2.946 1.062-4.527 1.235 1.642-0.99 2.871-2.553 3.457-4.397-1.54 0.93-3.228 1.582-4.988 1.927-0.736-0.798-1.625-1.434-2.613-1.867s-2.054-0.656-3.131-0.654c-4.356 0-7.86 3.583-7.86 7.981 0 0.617 0.074 1.235 0.194 1.829-6.523-0.346-12.341-3.509-16.208-8.35-0.705 1.222-1.074 2.612-1.069 4.028 0 2.769 1.388 5.211 3.503 6.648-1.247-0.050-2.465-0.398-3.554-1.015v0.098c0 3.878 2.701 7.092 6.302 7.831-0.676 0.178-1.371 0.269-2.070 0.271-0.512 0-0.996-0.052-1.484-0.122 0.996 3.162 3.895 5.459 7.348 5.534-2.701 2.147-6.085 3.41-9.759 3.41-0.659 0-1.268-0.023-1.899-0.098 3.485 2.269 7.62 3.579 12.073 3.579 14.456 0 22.367-12.154 22.367-22.703 0-0.346 0-0.692-0.023-1.039 1.531-1.137 2.872-2.545 3.941-4.126z"></path>
</symbol>
<symbol id="icon-youtube" viewBox="0 0 44 32">
<path fill="#e42f08" style="fill: var(--color4, #e42f08)" d="M42.613 5.211c-0.242-0.947-0.718-1.811-1.377-2.505s-1.481-1.193-2.382-1.448c-3.318-0.944-16.653-0.944-16.653-0.944s-13.334 0-16.653 0.944c-0.901 0.255-1.723 0.754-2.382 1.448s-1.135 1.558-1.377 2.505c-0.62 3.559-0.92 7.17-0.898 10.788-0.022 3.618 0.278 7.229 0.898 10.788 0.243 0.948 0.717 1.811 1.377 2.505s1.481 1.193 2.382 1.448c3.318 0.944 16.653 0.944 16.653 0.944s13.334 0 16.653-0.944c0.901-0.255 1.723-0.755 2.382-1.448s1.135-1.558 1.377-2.505c0.62-3.559 0.92-7.17 0.898-10.788 0.022-3.618-0.279-7.229-0.898-10.788zM17.939 22.722v-13.445l11.066 6.723-11.066 6.723z"></path>
</symbol>
<symbol id="icon-google-play" viewBox="0 0 98 32">
<path fill="#080809" style="fill: var(--color1, #080809)" d="M16 0h65.829c8.837 0 16 7.163 16 16s-7.163 16-16 16h-65.829c-8.837 0-16-7.163-16-16s7.163-16 16-16z"></path>
<path fill="#2196f3" style="fill: var(--color2, #2196f3)" d="M26.064 15.544l-9.183 8.842c-0.43-0.294-0.685-0.783-0.681-1.303v-15.078c-0.005-0.521 0.251-1.010 0.681-1.303l9.183 8.842z"></path>
<path fill="#4caf50" style="fill: var(--color3, #4caf50)" d="M29.277 12.456l-3.213 3.089-9.183-8.842c0.035-0.027 0.071-0.052 0.108-0.075 0.485-0.294 1.091-0.304 1.586-0.025l10.702 5.853z"></path>
<path fill="#f0bb1f" style="fill: var(--color4, #f0bb1f)" d="M33.171 15.544c0.006 0.588-0.313 1.131-0.83 1.411l-3.064 1.677-3.213-3.089 3.213-3.089 3.064 1.677c0.517 0.28 0.836 0.823 0.83 1.411z"></path>
<path fill="#f15a2b" style="fill: var(--color5, #f15a2b)" d="M29.277 18.633l-10.702 5.853c-0.495 0.274-1.099 0.265-1.586-0.025-0.037-0.023-0.073-0.048-0.108-0.075l9.183-8.842 3.213 3.089z"></path>
<path fill="#fff" style="fill: var(--color6, #fff)" d="M43.908 10.862h-2.567v1.024h1.368c-0.183 0.49-0.629 0.79-1.309 0.79-0.995 0-1.609-0.636-1.609-1.507 0-0.9 0.644-1.536 1.507-1.536 0.578 0 1.039 0.263 1.251 0.6l0.995-0.571c-0.432-0.688-1.258-1.17-2.238-1.17-1.507 0-2.684 1.185-2.684 2.67 0 1.47 1.156 2.655 2.765 2.655 1.434 0 2.523-0.951 2.523-2.516v-0.439z"></path>
<path fill="#fff" style="fill: var(--color6, #fff)" d="M45.372 12.588v-0.907h1.829v-1.112h-1.829v-0.848h2.011v-1.126h-3.182v5.12h3.218v-1.126h-2.048z"></path>
<path fill="#fff" style="fill: var(--color6, #fff)" d="M51.152 8.594h-3.803v1.126h1.317v3.994h1.17v-3.994h1.317v-1.126z"></path>
<path fill="#fff" style="fill: var(--color6, #fff)" d="M52.762 8.594v5.12h1.17v-5.12h-1.17z"></path>
<path fill="#fff" style="fill: var(--color6, #fff)" d="M57.884 8.594h-3.803v1.126h1.317v3.994h1.17v-3.994h1.317v-1.126z"></path>
<path fill="#fff" style="fill: var(--color6, #fff)" d="M61.936 13.817c1.47 0 2.662-1.156 2.662-2.662s-1.192-2.662-2.662-2.662c-1.47 0-2.662 1.156-2.662 2.662s1.192 2.662 2.662 2.662zM61.936 12.676c-0.834 0-1.492-0.607-1.492-1.521s0.658-1.521 1.492-1.521c0.834 0 1.492 0.607 1.492 1.521s-0.658 1.521-1.492 1.521z"></path>
<path fill="#fff" style="fill: var(--color6, #fff)" d="M67.744 8.594v2.779l-1.975-2.779h-0.878v5.12h1.17v-2.779l1.975 2.779h0.878v-5.12h-1.17z"></path>
<path fill="#fff" style="fill: var(--color6, #fff)" d="M43.908 19.558v0.198c0 0.639-0.227 1.178-0.68 1.616-0.453 0.434-1.051 0.651-1.792 0.651-0.78 0-1.424-0.254-1.931-0.761-0.507-0.512-0.761-1.139-0.761-1.88s0.251-1.365 0.753-1.872c0.502-0.512 1.139-0.768 1.909-0.768 0.468 0 0.897 0.112 1.287 0.336 0.395 0.224 0.7 0.524 0.914 0.9l-0.344 0.205c-0.171-0.322-0.424-0.58-0.761-0.775-0.332-0.195-0.697-0.293-1.097-0.293-0.663 0-1.209 0.219-1.638 0.658-0.424 0.434-0.636 0.97-0.636 1.609s0.215 1.178 0.644 1.616c0.429 0.434 0.983 0.651 1.66 0.651 0.6 0 1.085-0.163 1.456-0.49s0.578-0.739 0.622-1.236h-2.172v-0.366h2.567z"></path>
<path fill="#fff" style="fill: var(--color6, #fff)" d="M49.1 21.255c-0.512 0.512-1.136 0.768-1.872 0.768s-1.36-0.256-1.872-0.768c-0.512-0.517-0.768-1.141-0.768-1.872s0.256-1.353 0.768-1.865c0.512-0.517 1.136-0.775 1.872-0.775s1.36 0.258 1.872 0.775c0.512 0.512 0.768 1.134 0.768 1.865s-0.256 1.356-0.768 1.872zM45.625 20.992c0.439 0.439 0.973 0.658 1.602 0.658s1.16-0.219 1.594-0.658c0.439-0.444 0.658-0.98 0.658-1.609s-0.219-1.163-0.658-1.602c-0.434-0.444-0.965-0.666-1.594-0.666s-1.163 0.222-1.602 0.666c-0.434 0.439-0.651 0.973-0.651 1.602s0.217 1.165 0.651 1.609z"></path>
<path fill="#fff" style="fill: var(--color6, #fff)" d="M55.071 21.255c-0.512 0.512-1.136 0.768-1.872 0.768s-1.36-0.256-1.872-0.768c-0.512-0.517-0.768-1.141-0.768-1.872s0.256-1.353 0.768-1.865c0.512-0.517 1.136-0.775 1.872-0.775s1.36 0.258 1.872 0.775c0.512 0.512 0.768 1.134 0.768 1.865s-0.256 1.356-0.768 1.872zM51.597 20.992c0.439 0.439 0.973 0.658 1.602 0.658s1.16-0.219 1.595-0.658c0.439-0.444 0.658-0.98 0.658-1.609s-0.219-1.163-0.658-1.602c-0.434-0.444-0.965-0.666-1.594-0.666s-1.163 0.222-1.602 0.666c-0.434 0.439-0.651 0.973-0.651 1.602s0.217 1.165 0.651 1.609z"></path>
<path fill="#fff" style="fill: var(--color6, #fff)" d="M61.693 19.558v0.198c0 0.639-0.227 1.178-0.68 1.616-0.453 0.434-1.051 0.651-1.792 0.651-0.78 0-1.424-0.254-1.931-0.761-0.507-0.512-0.761-1.139-0.761-1.88s0.251-1.365 0.753-1.872c0.502-0.512 1.139-0.768 1.909-0.768 0.468 0 0.897 0.112 1.287 0.336 0.395 0.224 0.7 0.524 0.914 0.9l-0.344 0.205c-0.171-0.322-0.424-0.58-0.761-0.775-0.332-0.195-0.697-0.293-1.097-0.293-0.663 0-1.209 0.219-1.638 0.658-0.424 0.434-0.636 0.97-0.636 1.609s0.215 1.178 0.644 1.616c0.429 0.434 0.983 0.651 1.66 0.651 0.6 0 1.085-0.163 1.456-0.49s0.578-0.739 0.622-1.236h-2.172v-0.366h2.567z"></path>
<path fill="#fff" style="fill: var(--color6, #fff)" d="M63.053 21.577h2.414v0.366h-2.801v-5.12h0.388v4.754z"></path>
<path fill="#fff" style="fill: var(--color6, #fff)" d="M66.66 21.577h2.56v0.366h-2.948v-5.12h2.911v0.366h-2.523v1.989h2.341v0.366h-2.341v2.033z"></path>
<path fill="#fff" style="fill: var(--color6, #fff)" d="M73.863 16.823c0.458 0 0.839 0.151 1.141 0.454s0.454 0.68 0.454 1.134c0 0.453-0.151 0.831-0.454 1.134-0.302 0.297-0.683 0.446-1.141 0.446h-1.353v1.953h-0.388v-5.12h1.741zM73.863 19.624c0.351 0 0.639-0.115 0.863-0.344 0.229-0.229 0.344-0.519 0.344-0.87 0-0.356-0.115-0.648-0.344-0.878-0.224-0.229-0.512-0.344-0.863-0.344h-1.353v2.436h1.353z"></path>
<path fill="#fff" style="fill: var(--color6, #fff)" d="M76.803 21.577h2.414v0.366h-2.801v-5.12h0.388v4.754z"></path>
<path fill="#fff" style="fill: var(--color6, #fff)" d="M83.61 21.943l-0.497-1.302h-2.567l-0.497 1.302h-0.41l1.99-5.12h0.41l1.982 5.12h-0.41zM80.692 20.275h2.282l-1.141-2.977-1.141 2.977z"></path>
<path fill="#fff" style="fill: var(--color6, #fff)" d="M87.663 16.823l-1.865 3.014v2.107h-0.388v-2.107l-1.865-3.014h0.439l1.624 2.64 1.616-2.64h0.439z"></path>
</symbol>
<symbol id="icon-apple-store" viewBox="0 0 91 32">
<path fill="#080809" style="fill: var(--color1, #080809)" d="M16 0h59.429c8.837 0 16 7.163 16 16s-7.163 16-16 16h-59.429c-8.837 0-16-7.163-16-16s7.163-16 16-16z"></path>
<path fill="#fff" style="fill: var(--color6, #fff)" d="M19.922 21.943c-2.177-0.013-3.978-4.457-3.978-6.72 0-3.697 2.774-4.507 3.843-4.507 0.482 0 0.996 0.189 1.45 0.357 0.317 0.117 0.645 0.237 0.828 0.237 0.109 0 0.367-0.102 0.594-0.193 0.485-0.193 1.088-0.433 1.79-0.433 0.001 0 0.003 0 0.004 0 0.524 0 2.114 0.115 3.070 1.551l0.224 0.337-0.322 0.243c-0.46 0.347-1.3 0.981-1.3 2.236 0 1.487 0.951 2.058 1.408 2.333 0.202 0.121 0.41 0.247 0.41 0.52 0 0.179-1.426 4.016-3.498 4.016-0.507 0-0.865-0.152-1.181-0.287-0.32-0.136-0.596-0.253-1.051-0.253-0.231 0-0.523 0.109-0.832 0.225-0.423 0.158-0.901 0.337-1.444 0.337h-0.014z"></path>
<path fill="#fff" style="fill: var(--color6, #fff)" d="M24.667 7.314c0.054 1.945-1.337 3.294-2.726 3.21-0.229-1.552 1.389-3.21 2.726-3.21z"></path>
<path fill="#fff" style="fill: var(--color6, #fff)" d="M35.685 11.886h0.96l-1.306-3.84h-1.119l-1.306 3.84h0.96l0.192-0.603h1.426l0.192 0.603zM34.33 10.46l0.45-1.41 0.45 1.41h-0.9z"></path>
<path fill="#fff" style="fill: var(--color6, #fff)" d="M38.587 9.143l-0.571 1.739-0.571-1.739h-0.911l1.015 2.743h0.933l1.015-2.743h-0.911z"></path>
<path fill="#fff" style="fill: var(--color6, #fff)" d="M41.684 9.143v0.258c-0.181-0.208-0.45-0.335-0.817-0.335-0.719 0-1.311 0.631-1.311 1.448s0.592 1.448 1.311 1.448c0.368 0 0.636-0.126 0.817-0.335v0.258h0.823v-2.743h-0.823zM41.031 11.184c-0.379 0-0.653-0.258-0.653-0.669s0.274-0.669 0.653-0.669c0.379 0 0.653 0.258 0.653 0.669s-0.274 0.669-0.653 0.669z"></path>
<path fill="#fff" style="fill: var(--color6, #fff)" d="M43.111 11.886h0.823v-4.005h-0.823v4.005z"></path>
<path fill="#fff" style="fill: var(--color6, #fff)" d="M44.947 8.902c0.269 0 0.494-0.225 0.494-0.494s-0.225-0.494-0.494-0.494c-0.269 0-0.494 0.225-0.494 0.494s0.225 0.494 0.494 0.494zM44.536 11.886h0.823v-2.743h-0.823v2.743z"></path>
<path fill="#fff" style="fill: var(--color6, #fff)" d="M47.601 9.066c-0.368 0-0.636 0.126-0.817 0.335v-1.355h-0.823v3.84h0.823v-0.258c0.181 0.208 0.45 0.335 0.817 0.335 0.719 0 1.311-0.631 1.311-1.448s-0.592-1.448-1.311-1.448zM47.436 11.184c-0.379 0-0.653-0.258-0.653-0.669s0.274-0.669 0.653-0.669c0.379 0 0.653 0.258 0.653 0.669s-0.274 0.669-0.653 0.669z"></path>
<path fill="#fff" style="fill: var(--color6, #fff)" d="M49.378 11.886h0.823v-4.005h-0.823v4.005z"></path>
<path fill="#fff" style="fill: var(--color6, #fff)" d="M51.539 10.844h1.947c0.022-0.104 0.033-0.214 0.033-0.329 0-0.828-0.592-1.448-1.393-1.448-0.867 0-1.459 0.631-1.459 1.448s0.581 1.448 1.52 1.448c0.521 0 0.927-0.192 1.196-0.565l-0.658-0.379c-0.11 0.121-0.302 0.208-0.527 0.208-0.302 0-0.554-0.099-0.658-0.384zM51.522 10.229c0.077-0.28 0.285-0.433 0.598-0.433 0.247 0 0.494 0.115 0.581 0.433h-1.179z"></path>
<path fill="#fff" style="fill: var(--color6, #fff)" d="M56.674 11.963c0.806 0 1.454-0.631 1.454-1.448s-0.647-1.448-1.454-1.448c-0.806 0-1.454 0.631-1.454 1.448s0.647 1.448 1.454 1.448zM56.674 11.162c-0.357 0-0.631-0.258-0.631-0.647s0.274-0.647 0.631-0.647c0.357 0 0.631 0.258 0.631 0.647s-0.274 0.647-0.631 0.647z"></path>
<path fill="#fff" style="fill: var(--color6, #fff)" d="M60.2 9.066c-0.362 0-0.636 0.132-0.784 0.335v-0.258h-0.823v2.743h0.823v-1.498c0-0.389 0.208-0.565 0.51-0.565 0.263 0 0.477 0.159 0.477 0.499v1.563h0.823v-1.684c0-0.741-0.472-1.136-1.026-1.136z"></path>
<path fill="#fff" style="fill: var(--color6, #fff)" d="M64.77 9.933v-0.79h-0.565v-0.768l-0.823 0.247v0.521h-0.439v0.79h0.439v0.971c0 0.768 0.313 1.092 1.388 0.982v-0.746c-0.362 0.022-0.565 0-0.565-0.236v-0.971h0.565z"></path>
<path fill="#fff" style="fill: var(--color6, #fff)" d="M66.843 9.066c-0.362 0-0.636 0.132-0.784 0.335v-1.355h-0.823v3.84h0.823v-1.498c0-0.389 0.208-0.565 0.51-0.565 0.263 0 0.477 0.159 0.477 0.499v1.563h0.823v-1.684c0-0.741-0.472-1.136-1.026-1.136z"></path>
<path fill="#fff" style="fill: var(--color6, #fff)" d="M69.169 10.844h1.947c0.022-0.104 0.033-0.214 0.033-0.329 0-0.828-0.592-1.448-1.393-1.448-0.867 0-1.459 0.631-1.459 1.448s0.582 1.448 1.52 1.448c0.521 0 0.927-0.192 1.196-0.565l-0.658-0.379c-0.11 0.121-0.302 0.208-0.527 0.208-0.302 0-0.554-0.099-0.658-0.384zM69.152 10.229c0.077-0.28 0.285-0.433 0.598-0.433 0.247 0 0.494 0.115 0.582 0.433h-1.179z"></path>
<path fill="#fff" style="fill: var(--color6, #fff)" d="M37.531 21.943h1.6l-2.176-6.4h-1.865l-2.176 6.4h1.6l0.32-1.006h2.377l0.32 1.006zM35.273 19.566l0.75-2.35 0.75 2.35h-1.499z"></path>
<path fill="#fff" style="fill: var(--color6, #fff)" d="M42.365 17.244c-0.613 0-1.061 0.21-1.362 0.558v-0.43h-1.371v6.4h1.371v-2.258c0.302 0.347 0.75 0.558 1.362 0.558 1.198 0 2.185-1.051 2.185-2.414s-0.987-2.414-2.185-2.414zM42.091 20.773c-0.631 0-1.088-0.43-1.088-1.115s0.457-1.115 1.088-1.115c0.631 0 1.088 0.43 1.088 1.115s-0.457 1.115-1.088 1.115z"></path>
<path fill="#fff" style="fill: var(--color6, #fff)" d="M48.062 17.244c-0.613 0-1.061 0.21-1.362 0.558v-0.43h-1.371v6.4h1.371v-2.258c0.302 0.347 0.75 0.558 1.362 0.558 1.198 0 2.185-1.051 2.185-2.414s-0.987-2.414-2.185-2.414zM47.787 20.773c-0.631 0-1.088-0.43-1.088-1.115s0.457-1.115 1.088-1.115c0.631 0 1.088 0.43 1.088 1.115s-0.457 1.115-1.088 1.115z"></path>
<path fill="#fff" style="fill: var(--color6, #fff)" d="M51.024 21.943h1.371v-6.674h-1.371v6.674z"></path>
<path fill="#fff" style="fill: var(--color6, #fff)" d="M54.624 20.206h3.246c0.037-0.174 0.055-0.357 0.055-0.549 0-1.381-0.987-2.414-2.322-2.414-1.445 0-2.432 1.051-2.432 2.414s0.969 2.414 2.533 2.414c0.869 0 1.545-0.32 1.993-0.942l-1.097-0.631c-0.183 0.201-0.503 0.347-0.878 0.347-0.503 0-0.923-0.165-1.097-0.64zM54.597 19.182c0.128-0.466 0.475-0.722 0.997-0.722 0.411 0 0.823 0.192 0.969 0.722h-1.966z"></path>
<path fill="#fff" style="fill: var(--color6, #fff)" d="M63.274 22.071c1.39 0 2.377-0.731 2.377-1.966 0-1.353-1.088-1.691-2.057-1.984-0.997-0.302-1.152-0.503-1.152-0.795 0-0.256 0.229-0.485 0.686-0.485 0.585 0 0.887 0.283 1.106 0.741l1.234-0.722c-0.466-0.942-1.289-1.445-2.341-1.445-1.106 0-2.148 0.713-2.148 1.947 0 1.225 0.932 1.682 1.883 1.947 0.96 0.265 1.326 0.421 1.326 0.814 0 0.247-0.174 0.521-0.869 0.521-0.722 0-1.115-0.357-1.344-0.887l-1.262 0.731c0.357 0.942 1.216 1.582 2.56 1.582z"></path>
<path fill="#fff" style="fill: var(--color6, #fff)" d="M68.882 18.688v-1.317h-0.942v-1.28l-1.371 0.411v0.869h-0.731v1.317h0.731v1.618c0 1.28 0.521 1.819 2.313 1.637v-1.243c-0.603 0.037-0.942 0-0.942-0.393v-1.618h0.942z"></path>
<path fill="#fff" style="fill: var(--color6, #fff)" d="M71.763 22.071c1.344 0 2.423-1.051 2.423-2.414s-1.079-2.414-2.423-2.414c-1.344 0-2.423 1.051-2.423 2.414s1.079 2.414 2.423 2.414zM71.763 20.736c-0.594 0-1.051-0.43-1.051-1.079s0.457-1.079 1.051-1.079c0.594 0 1.051 0.43 1.051 1.079s-0.457 1.079-1.051 1.079z"></path>
<path fill="#fff" style="fill: var(--color6, #fff)" d="M76.333 18.185v-0.814h-1.371v4.571h1.371v-2.066c0-0.905 0.805-1.134 1.371-1.042v-1.554c-0.576 0-1.189 0.293-1.371 0.905z"></path>
<path fill="#fff" style="fill: var(--color6, #fff)" d="M79.437 20.206h3.246c0.037-0.174 0.055-0.357 0.055-0.549 0-1.381-0.987-2.414-2.322-2.414-1.445 0-2.432 1.051-2.432 2.414s0.969 2.414 2.533 2.414c0.869 0 1.545-0.32 1.993-0.942l-1.097-0.631c-0.183 0.201-0.503 0.347-0.878 0.347-0.503 0-0.923-0.165-1.097-0.64zM79.409 19.182c0.128-0.466 0.475-0.722 0.997-0.722 0.411 0 0.823 0.192 0.969 0.722h-1.966z"></path>
</symbol>
<symbol id="icon-burger" viewBox="0 0 55 32">
<path fill="#737373" style="fill: var(--color1, #737373)" d="M1.306 0h52.245v5.224h-52.245v-5.224zM14.368 13.061h39.184v5.224h-39.184v-5.224zM30.694 26.122h22.857v5.224h-22.857v-5.224z"></path>
</symbol>
<symbol id="icon-close" viewBox="0 0 20 20">
<path d="M10 8.586l-7.071-7.071-1.414 1.414 7.071 7.071-7.071 7.071 1.414 1.414 7.071-7.071 7.071 7.071 1.414-1.414-7.071-7.071 7.071-7.071-1.414-1.414-7.071 7.071z"></path>
</symbol>
</defs>
</svg>
